<svg width="16" height="16" viewBox="0 0 16 16" fill="none" xmlns="http://www.w3.org/2000/svg">
<path fill-rule="evenodd" clip-rule="evenodd" d="M3.2001 2.40039C2.77575 2.40039 2.36878 2.56896 2.06873 2.86902C1.76867 3.16908 1.6001 3.57604 1.6001 4.00039V12.0004C1.6001 12.4247 1.76867 12.8317 2.06873 13.1318C2.36878 13.4318 2.77575 13.6004 3.2001 13.6004H12.8001C13.2244 13.6004 13.6314 13.4318 13.9315 13.1318C14.2315 12.8317 14.4001 12.4247 14.4001 12.0004V4.00039C14.4001 3.57604 14.2315 3.16908 13.9315 2.86902C13.6314 2.56896 13.2244 2.40039 12.8001 2.40039H3.2001ZM12.8001 12.0004H3.2001L6.4001 5.60039L8.8001 10.4004L10.4001 7.20039L12.8001 12.0004Z" fill="#4F5B67"/>
</svg>
