<svg width="16" height="16" viewBox="0 0 16 16" fill="none" xmlns="http://www.w3.org/2000/svg">
<path d="M7.2001 1.59961C6.77575 1.59961 6.36878 1.76818 6.06873 2.06824C5.76867 2.3683 5.6001 2.77526 5.6001 3.19961V9.59961C5.6001 10.024 5.76867 10.4309 6.06873 10.731C6.36878 11.031 6.77575 11.1996 7.2001 11.1996H12.0001C12.4244 11.1996 12.8314 11.031 13.1315 10.731C13.4315 10.4309 13.6001 10.024 13.6001 9.59961V5.13081C13.6 4.7065 13.4314 4.2996 13.1313 3.99961L11.2001 2.06841C10.9001 1.76833 10.4932 1.5997 10.0689 1.59961H7.2001Z" fill="#4F5B67"/>
<path d="M2.3999 6.3998C2.3999 5.97546 2.56847 5.56849 2.86853 5.26843C3.16859 4.96838 3.57556 4.7998 3.9999 4.7998V12.7998H10.3999C10.3999 13.2242 10.2313 13.6311 9.93127 13.9312C9.63121 14.2312 9.22425 14.3998 8.7999 14.3998H3.9999C3.57556 14.3998 3.16859 14.2312 2.86853 13.9312C2.56847 13.6311 2.3999 13.2242 2.3999 12.7998V6.3998Z" fill="#4F5B67"/>
</svg>
