<svg width="175" height="45" viewBox="0 0 175 45" fill="none" xmlns="http://www.w3.org/2000/svg">
<g filter="url(#filter0_d_1_3)">
<path d="M16.16 2.12C18.3467 2.12 19.8667 2.88 20.72 4.4C21.5733 5.89333 22 7.90667 22 10.44C22 12.9467 21.7333 15.4 21.2 17.8C20.6933 20.2 19.9467 22.4267 18.96 24.48C18 26.5333 16.7333 28.2133 15.16 29.52C13.5867 30.8267 11.88 31.48 10.04 31.48C8.22667 31.48 6.81333 30.96 5.8 29.92C4.78667 28.8533 4.28 27.48 4.28 25.8C4.28 24.12 5.10667 22.3333 6.76 20.44C8.41333 18.52 10.9067 16.92 14.24 15.64C14.5067 14.04 14.64 12.4133 14.64 10.76C14.64 9.08 14.52 7.93333 14.28 7.32C14.04 6.70667 13.56 6.4 12.84 6.4C11.72 6.4 10.0533 7.18667 7.84 8.76L6.32 6.68C9.73333 3.64 13.0133 2.12 16.16 2.12ZM7.36 25.44C7.36 26 7.52 26.4933 7.84 26.92C8.18667 27.3467 8.62667 27.56 9.16 27.56C10.1467 27.56 11.0667 26.7467 11.92 25.12C12.7733 23.4933 13.4267 21.4 13.88 18.84C11.9067 19.56 10.32 20.5733 9.12 21.88C7.94667 23.1867 7.36 24.3733 7.36 25.44ZM23.6581 30.24H22.9781C22.9781 28.5867 23.3515 26.08 24.0981 22.72C24.8715 19.36 25.2581 17.4267 25.2581 16.92C25.2581 16.4133 25.1381 15.92 24.8981 15.44C24.6581 14.96 24.4181 14.6 24.1781 14.36L23.8181 14L23.8981 13.4C25.4715 12.8933 28.2181 12.64 32.1381 12.64C32.4048 13.2533 32.5915 13.8933 32.6981 14.56C35.1248 13.0667 37.1648 12.32 38.8181 12.32C39.9381 12.32 40.8181 12.6933 41.4581 13.44C42.0981 14.16 42.4181 15.04 42.4181 16.08C42.4181 17.0933 42.1248 18.7333 41.5381 21C40.9515 23.2667 40.6581 24.7467 40.6581 25.44C40.6581 26.1067 40.7515 26.44 40.9381 26.44L43.0581 25.88L43.7781 27.88C42.9248 28.52 41.8048 29.12 40.4181 29.68C39.0581 30.2133 37.8048 30.48 36.6581 30.48C34.3915 30.48 33.2581 29.3067 33.2581 26.96C33.2581 25.9467 33.5381 24.2933 34.0981 22C34.6581 19.7067 34.9381 18.28 34.9381 17.72C34.9381 17.1333 34.7515 16.84 34.3781 16.84C33.8981 16.84 33.2581 17.1067 32.4581 17.64C32.3515 18.12 32.0848 19.28 31.6581 21.12C30.8048 24.9867 30.3781 27.7733 30.3781 29.48C29.0715 29.9867 26.8315 30.24 23.6581 30.24ZM58.0466 15.84L54.5266 15.56C54.2866 20.0667 53.7532 24.3733 52.9266 28.48C52.1266 32.5867 51.3266 35.16 50.5266 36.2C49.1932 36.1733 47.8999 36.0133 46.6466 35.72C45.3932 35.4533 44.5399 35.1867 44.0866 34.92C45.0999 31.5067 45.8199 28.56 46.2466 26.08C46.6732 23.5733 47.0999 20.12 47.5266 15.72L44.8866 16C44.7799 15.4933 44.7266 14.9867 44.7266 14.48C44.7266 13.9467 44.7932 13.3733 44.9266 12.76H47.8066C48.2066 8.78667 48.7666 6.10667 49.4866 4.72C50.4199 2.88 51.5399 1.70667 52.8466 1.2C53.6466 0.853332 54.6599 0.679998 55.8866 0.679998C57.1132 0.679998 58.1399 1.04 58.9666 1.76C59.8199 2.45333 60.2466 3.4 60.2466 4.6C60.2466 5.77333 59.6999 7.13333 58.6066 8.68C57.5132 10.2267 56.1932 11.5867 54.6466 12.76H58.6866C58.6866 13.96 58.4732 14.9867 58.0466 15.84ZM56.8866 3.68C55.7666 3.68 55.0599 5.64 54.7666 9.56C55.6999 8.81333 56.4466 8 57.0066 7.12C57.5932 6.21333 57.8866 5.41333 57.8866 4.72C57.8866 4.02666 57.5532 3.68 56.8866 3.68ZM63.7075 30.48C61.6275 30.48 59.9875 29.8267 58.7875 28.52C57.5875 27.1867 56.9875 25.32 56.9875 22.92C56.9875 19.9867 57.8542 17.5067 59.5875 15.48C61.3208 13.4267 63.6008 12.4 66.4275 12.4L68.2275 12.56C68.8675 12.3733 69.4675 12.28 70.0275 12.28C71.3608 12.28 72.3075 12.7333 72.8675 13.64C73.4542 14.5467 73.7875 15.84 73.8675 17.52C74.9875 17.4667 76.0542 17.2933 77.0675 17L77.6275 16.84C77.8142 17.0267 77.9475 17.5867 78.0275 18.52L78.0675 18.96C76.8675 19.5733 75.4008 20.0533 73.6675 20.4C73.0808 23.2267 71.9208 25.6133 70.1875 27.56C68.4542 29.5067 66.2942 30.48 63.7075 30.48ZM64.5075 22.76C64.5075 25.24 65.1342 26.48 66.3875 26.48C67.2675 26.48 68.1608 25.92 69.0675 24.8C70.0008 23.68 70.6408 22.32 70.9875 20.72C68.2675 20.72 66.9075 19.4133 66.9075 16.8C66.9075 16.3467 66.9475 15.88 67.0275 15.4C66.7608 15.4 66.5608 15.44 66.4275 15.52C65.9742 16 65.5342 16.9733 65.1075 18.44C64.7075 19.88 64.5075 21.32 64.5075 22.76ZM88.5638 24.6C88.5638 26.2533 87.7904 27.6533 86.2438 28.8C84.7238 29.92 82.9371 30.48 80.8838 30.48C78.8304 30.48 77.1371 30.1333 75.8038 29.44C74.4971 28.7467 73.8438 28.0933 73.8438 27.48C73.8438 26.84 74.2438 26.04 75.0438 25.08C75.8704 24.0933 76.7104 23.52 77.5638 23.36C78.7904 24.0267 79.8971 25.5067 80.8838 27.8C81.6571 27.8 82.0438 27.5467 82.0438 27.04C82.0438 26.6667 81.9371 26.32 81.7238 26C81.5104 25.68 81.3504 25.4267 81.2438 25.24C81.1371 25.0533 80.9504 24.8 80.6838 24.48C80.4171 24.1333 80.2171 23.88 80.0838 23.72C79.4171 22.92 78.8171 22.1867 78.2838 21.52C77.0038 19.92 76.3638 18.52 76.3638 17.32C76.3638 16.0933 76.7504 15.0933 77.5238 14.32C78.8571 12.96 80.8171 12.28 83.4038 12.28C85.0304 12.28 86.3238 12.6 87.2838 13.24C88.2438 13.8533 88.7238 14.7867 88.7238 16.04C88.7238 17.2667 87.9904 18.68 86.5238 20.28C87.8838 21.8533 88.5638 23.2933 88.5638 24.6ZM85.8838 17.28C86.2038 16.7733 86.3638 16.32 86.3638 15.92C86.3638 15.52 86.1904 15.2133 85.8438 15C85.4971 14.7867 85.0838 14.68 84.6038 14.68C84.1238 14.68 83.7504 14.8 83.4838 15.04C83.2438 15.2533 83.1238 15.5467 83.1238 15.92C83.1238 16.2933 83.6971 17.12 84.8438 18.4C85.2171 18.1333 85.5638 17.76 85.8838 17.28ZM104.114 15.84L100.674 15.56C99.6077 20.3333 99.021 23.1067 98.9144 23.88C98.8344 24.6533 98.7944 25.2933 98.7944 25.8C98.7944 26.28 98.9544 26.52 99.2744 26.52C99.6477 26.52 100.354 26.28 101.394 25.8L102.354 27.72C101.501 28.4933 100.421 29.1467 99.1144 29.68C97.8077 30.2133 96.541 30.48 95.3144 30.48C94.1144 30.48 93.1544 30.1733 92.4344 29.56C91.7144 28.92 91.3544 28.0267 91.3544 26.88C91.3544 25.7333 91.6877 23.8933 92.3544 21.36C93.021 18.8267 93.461 16.9467 93.6744 15.72C93.0344 15.7733 92.0877 15.8667 90.8344 16C90.7277 15.44 90.6744 14.92 90.6744 14.44C90.6744 13.9333 90.741 13.3733 90.8744 12.76H94.0744C94.101 12.4133 94.1144 11.2533 94.1144 9.28L94.0344 7.64C96.621 6.78667 99.0877 6.36 101.434 6.36C101.621 6.78667 101.714 7.53333 101.714 8.6C101.714 9.64 101.541 11.0267 101.194 12.76H104.794C104.794 13.8533 104.568 14.88 104.114 15.84ZM105.101 30.24H104.781C104.701 29.8667 104.661 29.2933 104.661 28.52C104.661 27.72 104.981 25.68 105.621 22.4C106.287 19.0933 106.621 17.2267 106.621 16.8C106.621 16.3467 106.501 15.8933 106.261 15.44C106.021 14.96 105.781 14.6 105.541 14.36L105.181 14L105.261 13.4C106.861 12.8933 109.514 12.64 113.221 12.64C113.567 13.3067 113.781 14.0933 113.861 15C115.487 13.1867 116.927 12.28 118.181 12.28C119.807 12.28 120.701 13.6533 120.861 16.4C120.807 16.4533 120.741 16.5467 120.661 16.68C120.581 16.7867 120.394 16.9867 120.101 17.28C119.807 17.5733 119.501 17.84 119.181 18.08C118.274 18.6933 117.314 19.0533 116.301 19.16C116.274 19.16 116.087 18.8667 115.741 18.28C115.421 17.6933 115.141 17.4 114.901 17.4C114.687 17.4 114.274 17.64 113.661 18.12C113.581 18.6 113.421 19.4133 113.181 20.56C112.967 21.7067 112.794 22.6533 112.661 23.4C112.261 25.3733 112.061 27.0267 112.061 28.36L112.101 29.56C110.927 30.0133 108.594 30.24 105.101 30.24ZM129.565 15C129.565 16.1733 129.231 18 128.565 20.48C127.898 22.9333 127.565 24.5333 127.565 25.28C127.565 26.0267 127.711 26.4 128.005 26.4C128.298 26.4 128.831 26.2667 129.605 26L129.965 25.84L130.685 27.84C129.778 28.5333 128.645 29.1467 127.285 29.68C125.951 30.2133 124.738 30.48 123.645 30.48C122.551 30.48 121.685 30.1733 121.045 29.56C120.431 28.9467 120.125 28.0667 120.125 26.92C120.125 25.7467 120.445 23.9733 121.085 21.6C121.751 19.2 122.085 17.68 122.085 17.04C122.085 16.0533 121.738 15.12 121.045 14.24L120.725 13.8L120.845 13.12C122.231 12.6933 124.925 12.48 128.925 12.48C129.351 12.96 129.565 13.8 129.565 15ZM126.565 9.36C125.365 9.36 124.418 9.04 123.725 8.4C123.058 7.76 122.725 6.94667 122.725 5.96C122.725 4.94666 123.138 4.10666 123.965 3.44C124.818 2.74666 125.845 2.4 127.045 2.4C128.245 2.4 129.178 2.68 129.845 3.24C130.511 3.8 130.845 4.58667 130.845 5.6C130.845 6.61333 130.431 7.49333 129.605 8.24C128.805 8.98667 127.791 9.36 126.565 9.36ZM145.877 30.48C144.224 30.48 143.157 29.84 142.677 28.56C140.65 29.84 138.837 30.48 137.237 30.48C135.664 30.48 134.384 29.9467 133.397 28.88C132.437 27.7867 131.957 26.0267 131.957 23.6C131.957 20.4267 132.757 17.7467 134.357 15.56C135.984 13.3733 138.077 12.28 140.637 12.28C141.89 12.28 143.144 12.5733 144.397 13.16C145.384 8.65333 145.877 5.41333 145.877 3.44C145.877 2.85333 145.837 2.26667 145.757 1.68C148.237 0.986666 150.624 0.639999 152.917 0.639999C153.13 0.986666 153.237 1.81333 153.237 3.12C153.237 4.4 152.624 7.86667 151.397 13.52C150.197 19.1733 149.597 22.96 149.597 24.88C149.597 25.8933 149.77 26.4 150.117 26.4L151.837 25.84L152.557 27.88C150.21 29.6133 147.984 30.48 145.877 30.48ZM140.637 26.44C141.117 26.44 141.65 26.28 142.237 25.96V25.92C142.344 23.76 142.864 20.36 143.797 15.72C143.264 15.56 142.877 15.48 142.637 15.48C142.077 15.48 141.584 15.76 141.157 16.32C140.73 16.88 140.397 17.6 140.157 18.48C139.704 20.2933 139.477 22.08 139.477 23.84C139.477 25.5733 139.864 26.44 140.637 26.44ZM153.277 22.76C153.277 19.4533 154.277 16.88 156.277 15.04C158.303 13.2 160.797 12.28 163.757 12.28C165.81 12.28 167.45 12.7333 168.677 13.64C169.93 14.52 170.557 15.7067 170.557 17.2C170.557 18.2933 170.223 19.2667 169.557 20.12C168.89 20.9733 168.077 21.6267 167.117 22.08C165.09 22.9867 163.33 23.5333 161.837 23.72L160.837 23.84C161.13 25.6 162.01 26.48 163.477 26.48C164.117 26.48 164.823 26.3467 165.597 26.08C166.37 25.7867 166.983 25.4933 167.437 25.2L168.117 24.8L169.397 26.52C169.397 26.52 169.25 26.6667 168.957 26.96C168.797 27.12 168.41 27.44 167.797 27.92C167.21 28.3733 166.583 28.7733 165.917 29.12C165.277 29.4667 164.45 29.7733 163.437 30.04C162.423 30.3333 161.41 30.48 160.397 30.48C158.13 30.48 156.37 29.8267 155.117 28.52C153.89 27.1867 153.277 25.2667 153.277 22.76ZM160.677 21.2C161.45 21.0933 162.223 20.4667 162.997 19.32C163.77 18.1467 164.157 17.1733 164.157 16.4C164.157 15.6 163.93 15.2 163.477 15.2C162.81 15.2 162.197 15.72 161.637 16.76C161.077 17.8 160.757 19.28 160.677 21.2Z" fill="black"/>
</g>
<defs>
<filter id="filter0_d_1_3" x="0.280001" y="0.639999" width="174.277" height="43.56" filterUnits="userSpaceOnUse" color-interpolation-filters="sRGB">
<feFlood flood-opacity="0" result="BackgroundImageFix"/>
<feColorMatrix in="SourceAlpha" type="matrix" values="0 0 0 0 0 0 0 0 0 0 0 0 0 0 0 0 0 0 127 0" result="hardAlpha"/>
<feOffset dy="4"/>
<feGaussianBlur stdDeviation="2"/>
<feComposite in2="hardAlpha" operator="out"/>
<feColorMatrix type="matrix" values="0 0 0 0 1 0 0 0 0 1 0 0 0 0 1 0 0 0 0.25 0"/>
<feBlend mode="normal" in2="BackgroundImageFix" result="effect1_dropShadow_1_3"/>
<feBlend mode="normal" in="SourceGraphic" in2="effect1_dropShadow_1_3" result="shape"/>
</filter>
</defs>
</svg>
